# xmcd
#
# Track frame offsets: 
#        150
#        21128
#        33875
#        43317
#        61482
#        76879
#        94837
#        106032
#        117507
#        127732
#        148544
#        167384
#        180369
#        195259
#        208334
#        221876
#        237776
#        249929
#        260941
#        275108
#
# Disc length: 3910 seconds
#
# Revision: 1
# Processed by: cddbd v1.5.1PL0 Copyright (c) Steve Scherf et al.
# Submitted via: ExactAudioCopy v0.95a5
#
DISCID=1a0f4414
DTITLE=Sarah Vaughan - The Very Best of Sarah Vaughan
DYEAR=2002
DGENRE=Jazz
TTITLE0=Danny Boy
TTITLE1=A Lover's Concerto
TTITLE2=Waltz For Debbie
TTITLE3=Lullaby of Birdland
TTITLE4=Michelle
TTITLE5=The Shadow of Your Smile
TTITLE6=The Boy From Ipanema
TTITLE7=C'est La Vie
TTITLE8=Yesterday
TTITLE9=Fly Me To The Moon
TTITLE10=I Left My Heart in San Francisco
TTITLE11=Moon River
TTITLE12=Stardust
TTITLE13=Summertime
TTITLE14=My Funny Valentine
TTITLE15=Over the Rainbow
TTITLE16=The Days of Wine and Roses
TTITLE17=Let's Call The Whole Thing Off
TTITLE18=Close To You
TTITLE19=Someone To Watch Over Me
EXTD=YEAR: 2002
EXTT0=
EXTT1=
EXTT2=
EXTT3=
EXTT4=
EXTT5=
EXTT6=
EXTT7=
EXTT8=
EXTT9=
EXTT10=
EXTT11=
EXTT12=
EXTT13=
EXTT14=
EXTT15=
EXTT16=
EXTT17=
EXTT18=
EXTT19=
PLAYORDER=
